<?xml version="1.0" encoding="utf-8"?>
<!-- Generator: Adobe Illustrator 21.0.0, SVG Export Plug-In . SVG Version: 6.00 Build 0)  -->
<svg version="1.1" id="Слой_1" xmlns="http://www.w3.org/2000/svg" xmlns:xlink="http://www.w3.org/1999/xlink" x="0px" y="0px"
	 viewBox="0 0 283.5 283.5" style="enable-background:new 0 0 283.5 283.5;" xml:space="preserve">
<style type="text/css">
	.st0{fill:#FFFFFF;}
	.st1{fill:none;stroke:#E8EAEA;stroke-width:2;stroke-miterlimit:10;}
	.st2{fill:none;stroke:#EAEAEA;stroke-miterlimit:10;}
	.st3{fill:none;stroke:#E8EAEA;stroke-miterlimit:10;}
	.st4{fill:none;stroke:url(#SVGID_1_);stroke-width:4;stroke-miterlimit:10;}
</style>
<g id="XMLID_5_">
	<g>
		<path class="st0" d="M142.3,120.3v40.6c-2.6,0-5.2,0-7.8,0c-7.2-11.5-14.3-23.1-21.5-34.6c0,11.5,0,23.1,0,34.6h-5.8v-40.6h7.8
			c7.2,10.9,14.3,21.7,21.5,32.6c0-10.9,0-21.7,0-32.6C138.5,120.3,140.5,120.3,142.3,120.3z"/>
		<path class="st0" d="M178.7,148.3c0,2,0,3-0.2,4.2c-0.2,1-0.4,2.2-1,3.6c-0.2,0.6-0.8,1.8-2,2.8c-1.2,1.2-2.6,1.8-4.8,2.2
			c-2,0.4-5.6,1-10.7,0.6c-3-0.4-6-0.6-9.3-1c0-1.6-0.2-3.4-0.2-5c2.4,0.6,5.2,1,8.4,1.4c1.8,0.2,3.6,0.2,5,0.2
			c1.2,0.2,2.8,0,4.6-0.6c1.4-0.4,2.4-0.8,3-1.8c0.6-0.8,0.8-2,0.8-4.4c0-1.2,0-2,0-2.4c-0.2-2.2-0.2-3.6-1.2-4.6
			c-0.4-0.4-1-0.6-1.8-0.8c-1.4-0.4-2.6-0.4-5-0.6c-2.8,0-3.8,0-5.6-0.2c-1.4-0.2-2-0.2-2.6-0.4c-1-0.2-2.6-0.6-3.8-1.8
			c-0.8-0.8-1.2-1.6-1.6-2.6c-1.4-3-1.2-6-0.8-9.7c0-0.2,0-0.6,0.2-1.2c0,0,0.4-1.6,1.4-3c1.8-2.4,6.2-3.2,8.2-3.6
			c1.2-0.2,3-0.4,7-0.4c2.4,0,5.8,0.2,9.9,0.6c0,1.6,0,3,0,4.6c-2.8-0.4-5.2-0.6-7-0.8c-4-0.4-5.6-0.2-6.6-0.2c-1.6,0.2-3,0.4-4,0.6
			c-0.6,0.2-1.6,0.4-2.2,1.4c-0.2,0.4-0.6,0.8-0.6,2.8c-0.4,3.4,0.2,5.2,0.2,5.8c0.2,1.2,0.6,1.6,1,2c0.8,0.8,1.8,1,2.2,1
			c3.6,0.2,7.2,0.2,10.7,0.4c0.8,0.2,1.6,0.2,2.4,0.4c0.8,0.2,2.6,0.6,4,2.2c1.4,1.4,1.6,3.2,1.8,4.2
			C178.7,145.5,178.7,146.3,178.7,148.3z"/>
	</g>
	<g>
		<polygon class="st1" points="267,72.2 142.3,1.8 17.8,72.2 17.8,212.8 20.2,214.2 142.3,283.2 264.6,214.2 267,212.8 		"/>
		<polygon class="st2" points="71.9,156.3 49,194.9 49.2,194.9 49.2,194.9 94.6,194.9 190.6,194.7 235.6,194.5 213.1,156.5 
			165,75.3 142.5,37.2 120,75.3 		"/>
		<line class="st3" x1="235.6" y1="194.5" x2="267" y2="212.8"/>
		<polyline class="st3" points="235.6,194.5 214.9,214.2 142.3,283.2 		"/>
		<polyline class="st3" points="17.8,72.2 142.5,35.8 142.3,1.8 		"/>
		<line class="st3" x1="267" y1="72.2" x2="142.5" y2="35.8"/>
		
			<linearGradient id="SVGID_1_" gradientUnits="userSpaceOnUse" x1="142.4984" y1="3.532" x2="142.4984" y2="210.1976" gradientTransform="matrix(1 0 0 -1 0 283.46)">
			<stop  offset="0.1757" style="stop-color:#FFFB6A"/>
			<stop  offset="0.5878" style="stop-color:#7EFDB6"/>
			<stop  offset="1" style="stop-color:#00FFFF"/>
		</linearGradient>
		<polygon class="st4" points="213.1,156.5 261,75.3 165,75.3 120,75.3 24,75.3 71.9,156.3 94.6,194.9 106.1,214.2 142.5,276 
			178.9,214.2 190.6,194.7 		"/>
		<polyline class="st3" points="142.3,283.2 69.7,214.2 49.2,194.9 49.2,194.9 49.2,194.9 17.8,212.8 		"/>
	</g>
</g>
</svg>
