<svg id="Слой_1" data-name="Слой 1" xmlns="http://www.w3.org/2000/svg" viewBox="0 0 282.54 187.03"><defs><style>.cls-1{fill:none;stroke:#f2f2f2;stroke-miterlimit:10;stroke-width:3px;}</style></defs><title>NS - Icons - Virtual Companions</title><path class="cls-1" d="M205.9,98.7a68.63,68.63,0,0,1-31.7-2.5A69.29,69.29,0,0,1,153,85c5-2.7,10-5.4,14.9-8.1-2.1-8.3-4.1-16.6-6.2-24.9-9.1,2.3-18.3,4.6-27.4,6.8-7.1,4.8-14.1,9.5-21.2,14.3C101.1,82.9,89,92.6,77,102.4c-4.8,5.2-9.5,10.5-14.3,15.7-6.3-1-12.6-1.9-18.9-2.9.3-3,.6-6.1.8-9.1L34,104.9c-10.3,22.8-20.7,45.6-31,68.5,10.4,1,20.7,2.1,31.1,3.1l3-.9a40.5,40.5,0,0,1,16.8-7,42.38,42.38,0,0,1,11.4-.2c14.1,1.6,24.8,8.5,26.5,9.5,9,5.6,27.9,12.6,71.9,18.5,6.4,2.9,12.9,5.8,19.3,8.7,2.7-7.3,5.4-14.5,8.1-21.8,3.9.6,7.9,1.2,11.8,1.9,1.5-9.1,2.9-18.3,4.4-27.4l-21.2-1.2,23-1.2.6-23.7c-1.1-.6-2.2-1.1-3.3-1.7-3.2-.7-6.5-1.3-9.7-2,3.5-.6,7-1.3,10.5-1.9C206.7,116.9,206.3,107.8,205.9,98.7Z" transform="translate(-0.77 -41.41)"/><path class="cls-1" d="M188.4,71.3c-4.6-7.7-9.1-15.4-13.7-23,16.6-7.1,30.6-6.6,33-1.9S202.6,62.1,188.4,71.3Z" transform="translate(-0.77 -41.41)"/><path class="cls-1" d="M249.9,129.8c0-8.9.1-17.9.1-26.8,17.9,2.5,29.6,10,29.3,15.3S266.7,129.2,249.9,129.8Z" transform="translate(-0.77 -41.41)"/><path class="cls-1" d="M252.8,163.7c.1-8.5.3-17,.4-25.4,17.6,3.9,29,12,28.6,17S269.4,164.5,252.8,163.7Z" transform="translate(-0.77 -41.41)"/><path class="cls-1" d="M247.1,194.7c1.6-7.4,3.1-14.9,4.7-22.3,14,3.8,22.1,11.2,20.9,15.6C271.5,192.2,260.8,195.7,247.1,194.7Z" transform="translate(-0.77 -41.41)"/><path class="cls-1" d="M216.5,221.5c3.4-6.5,6.8-12.9,10.2-19.4,12,8.8,17.6,18.8,15.3,22.5C239.9,228.4,229,227.7,216.5,221.5Z" transform="translate(-0.77 -41.41)"/><path class="cls-1" d="M218.6,101.5c6.1.8,12.2,1.7,18.4,2.5.2,7.6.4,15.1.6,22.7l-20.9-.3C217.4,118.1,218,109.8,218.6,101.5Z" transform="translate(-0.77 -41.41)"/><path class="cls-1" d="M221,135.3c6.1.8,12.2,1.7,18.4,2.5.2,7.6.4,15.1.6,22.7l-20.9-.3C219.8,151.9,220.4,143.6,221,135.3Z" transform="translate(-0.77 -41.41)"/><path class="cls-1" d="M219.6,166.6c5,1.5,10.1,2.9,15.1,4.4l-2.4,19.2c-5.8-1-11.6-1.9-17.4-2.9C216.4,180.4,218,173.5,219.6,166.6Z" transform="translate(-0.77 -41.41)"/><path class="cls-1" d="M202,193c4.1,2.6,8.2,5.1,12.3,7.7l-6.9,16.5c-4.9-2.3-9.9-4.6-14.8-6.9C195.8,204.5,198.9,198.8,202,193Z" transform="translate(-0.77 -41.41)"/><line class="cls-1" x1="216.03" y1="72.69" x2="207.43" y2="72.69"/><line class="cls-1" x1="247.23" y1="72.69" x2="238.63" y2="72.69"/><line class="cls-1" x1="217.83" y1="104.39" x2="209.33" y2="103.19"/><line class="cls-1" x1="249.13" y1="108.99" x2="240.63" y2="107.79"/><line class="cls-1" x1="213.53" y1="133.49" x2="205.03" y2="132.29"/><line class="cls-1" x1="244.33" y1="138.09" x2="235.83" y2="136.79"/><line class="cls-1" x1="195.53" y1="157.29" x2="188.23" y2="152.69"/><line class="cls-1" x1="217.73" y1="171.59" x2="210.53" y2="166.99"/></svg>