<?xml version="1.0" encoding="utf-8"?>
<!-- Generator: Adobe Illustrator 21.1.0, SVG Export Plug-In . SVG Version: 6.00 Build 0)  -->
<svg version="1.1" id="Слой_1" xmlns="http://www.w3.org/2000/svg" xmlns:xlink="http://www.w3.org/1999/xlink" x="0px" y="0px"
	 viewBox="0 0 256.7 283" style="enable-background:new 0 0 256.7 283;" xml:space="preserve">
<style type="text/css">
	.st0{fill:none;stroke:#F2F2F2;stroke-width:3;stroke-miterlimit:10;}
</style>
<title>NS - Icons - Cyber Security</title>
<path class="st0" d="M121.9,41.7c1.1-7.4,0.2-14.9-2.9-21.8c-1.7-3.8-6.1-13.5-16-17.2c-7.5-2.8-14.3-0.7-23.2,2
	C73.8,6.6,68.1,9.4,63,13.1c-4.3,3.2-8,7-11.2,11.3c-2.3,3.2-3.7,7.2-4.3,7s1.3-5.1-0.2-6.1c-1.7-1.1-7.5,3.1-10.7,8.4
	c-2.3,3.9-3.4,8.4-3.2,12.9C31,46.5,28.5,47,26.3,48c-9.3,4.6-13,20.2-9.5,38.9c-2.9,4.1-5.1,8.6-6.6,13.4
	C8,108,7.8,115.9,9.4,123.6c-3.5,4.6-6,10-7.2,15.7c-1.5,7.5-0.8,15.2,2,22.3l6.6-0.3c-2,0.7-3.7,1.9-5.1,3.4
	c-4.9,5.6-2.5,13.5-2.3,14.3c1.4,4.2,4.4,7.7,8.3,9.7c-0.6,2.5-0.9,5.1-0.9,7.7c0.1,3.3,0.7,6.6,1.7,9.7c2.3,6.7,9,14.3,18.9,19.5
	c-1.2,4.8-1.2,9.8,0,14.6c1.3,5.6,4.3,10.7,8.6,14.6c5.5,4.8,12.7,7.4,20,7.2c4.6,6.8,11,12.2,18.6,15.5c4.2,1.8,16.6,7,28.6,0.9
	c12.7-6.4,15.6-20.6,16.3-24.3c1.4-7.6,0.7-15.4-2-22.6c-0.6-1.8-1.4-3.5-2.3-5.1l-3.7-0.3"/>
<path class="st0" d="M92.7,252.7l-6.2-13v-0.1c-2.4-5-5.7-12.1-5.8-12.1s6.1,8.7,3.2,13.7c-1.5,2.5-4.7,3.2-5.7,3.4
	c-11.8,2.5-25.9-17.2-27.5-19.5c4.7-4.2,5.9-11.1,2.9-16.6"/>
<line class="st0" x1="31.5" y1="225.8" x2="50.7" y2="225.2"/>
<path class="st0" d="M59.8,151.1c-7.1-2.1-14.6-0.2-19.2,4.9c-3,3.3-2.1,7-4.3,13.2c-2.2,6-5.8,11.4-10.6,15.7l-14,4"/>
<path class="st0" d="M18.6,112.7l-2.6,5.4l-6.6,5.4"/>
<path class="st0" d="M62.9,37.5c8.8-7.2,16.3-11.2,19.2-10.6c1.6,0.5,3.1,1.4,4.3,2.6c0.1,0.2,0.2,0.5,0.2,0.8
	c0.1,0.5-3.3,5.9-3.3,5.8s1.3-1.4,6.9-7.2c1.9,0.9,3.9,1.3,6,1.1c4.3-0.5,6.1-3.6,9.2-5.1c2.8-1.4,7.6-1.9,16.3,2.9"/>
<path class="st0" d="M62.9,48.9c-3.1,5.3-3.5,8.9-3.4,10.9c0,0.2,0,0.4,0,0.4c0.2,2.9,1,5.7,2.6,8.2c-0.1,0.1-2.8-7.9-6.6-8.3
	c-4.2-0.4-5.3,9-13.7,12.6c-4.3,1.8-10.2,2.1-12.3-0.6c-0.8-1.1-0.9-2.8-1-6.1c-0.1-2.4,0.1-4.7,0.4-7.1"/>
<path class="st0" d="M32.8,99.1c-5.8-5.9-9-12.6-7.5-16.6c0.8-1.9,1.8-3.7,3-5.3c0.9-1.3,1.9-2.6,3.1-3.7c-2.1,3.7-4.9,6.9-8.3,9.4
	c-2.2,1.6-6.1,4.1-6.1,4.1l0,0"/>
<path class="st0" d="M127.8,62.2c-5.4,0.2-10.7,1.5-15.6,3.7C100.5,71.5,92,82.2,89.3,94.8l-0.2,27.8c-2.8,0-5.5,0.9-7.7,2.7
	c-2.5,2.1-4,5-4.3,8.2v58.7c0.1,5,3,9.5,7.4,11.8h43.9"/>
<path class="st0" d="M128.4,82.2c-3.9-0.3-7.7,0.6-11.1,2.5c-4.6,2.8-7.9,7.4-9.1,12.8l0.2,26.1h20"/>
<path class="st0" d="M128.4,143.4c-5.8-0.5-11,3.4-12.3,9c-0.3,1.6-0.3,3.2,0,4.7c0.6,2.9,2.2,5.6,4.6,7.4l-5.7,14.9h13.4"/>
<path class="st0" d="M134.8,41.9c-1.1-7.4-0.2-14.9,2.9-21.8c1.7-3.8,6.1-13.5,16-17.2c7.5-2.8,14.3-0.7,23.2,2
	c6.1,1.8,11.8,4.6,16.9,8.3c4.3,3.2,8,7,11.1,11.3c2.3,3.2,3.7,7.2,4.3,7s-1.3-5.1,0.2-6.1c1.7-1.1,7.5,3.1,10.7,8.4
	c2.3,3.9,3.4,8.4,3.1,12.9c2.5-0.1,4.9,0.4,7.2,1.4c9.3,4.6,13,20.2,9.4,38.9c2.9,4.1,5.1,8.6,6.6,13.4c2.2,7.5,2.5,15.5,0.9,23.2
	c3.6,4.6,6,10,7.2,15.8c1.5,7.5,0.8,15.2-2,22.3l-6.6-0.3c2,0.7,3.7,1.9,5.1,3.4c4.9,5.6,2.5,13.5,2.3,14.3
	c-1.4,4.2-4.4,7.7-8.3,9.7c0.6,2.5,0.9,5.1,0.9,7.7c-0.1,3.3-0.7,6.6-1.7,9.7c-2.3,6.7-9,14.3-18.9,19.5c1.2,4.8,1.2,9.8,0,14.6
	c-1.3,5.6-4.3,10.7-8.6,14.6c-5.5,4.8-12.7,7.4-20,7.2c-4.6,6.8-11,12.2-18.6,15.5c-4.2,1.8-16.6,7-28.6,0.9
	c-12.7-6.4-15.6-20.6-16.3-24.3c-1.4-7.6-0.7-15.4,2-22.6c0.6-1.8,1.4-3.5,2.3-5.1l3.7-0.3"/>
<path class="st0" d="M163.9,252.8l6.2-13v-0.1c2.4-5,5.7-12.1,5.8-12.1s-6.1,8.7-3.1,13.7c1.5,2.5,4.7,3.2,5.7,3.4
	c11.8,2.5,25.9-17.2,27.5-19.5c-4.7-4.2-5.9-11.1-2.9-16.6"/>
<line class="st0" x1="225.2" y1="225.9" x2="206" y2="225.4"/>
<path class="st0" d="M196.9,151.2c7.1-2.1,14.6-0.2,19.2,4.9c3,3.3,2.1,7,4.3,13.2c2.2,6,5.8,11.4,10.6,15.7l14,4"/>
<path class="st0" d="M238.1,112.9l2.6,5.4l6.6,5.4"/>
<path class="st0" d="M193.7,37.6c-8.8-7.2-16.3-11.2-19.2-10.6c-1.6,0.5-3.1,1.4-4.3,2.6c-0.1,0.2-0.2,0.5-0.2,0.8
	c-0.1,0.5,3.3,5.9,3.3,5.8s-1.3-1.4-6.9-7.2c-1.9,0.9-3.9,1.3-6,1.1c-4.3-0.5-6.1-3.6-9.2-5.1c-2.8-1.4-7.6-1.9-16.3,2.9"/>
<path class="st0" d="M193.7,49c3.1,5.3,3.5,8.9,3.4,10.9c0,0.2,0,0.4,0,0.4c-0.2,2.9-1,5.7-2.6,8.2c0.1,0.1,2.8-7.9,6.6-8.3
	c4.2-0.4,5.3,9,13.7,12.6c4.4,1.9,10.2,2.1,12.3-0.6c0.8-1.1,0.9-2.8,1-6.1c0.1-2.4-0.1-4.7-0.4-7.1"/>
<path class="st0" d="M223.9,99.2c5.8-5.9,9-12.6,7.5-16.6c-0.8-1.9-1.8-3.7-3-5.3c-0.9-1.3-1.9-2.6-3.1-3.7c2.1,3.7,4.9,6.9,8.4,9.4
	c2.2,1.6,6.1,4.1,6.1,4.1l0,0"/>
<path class="st0" d="M128.9,62.4c5.4,0.2,10.7,1.5,15.6,3.7c11.7,5.6,20.2,16.2,22.9,28.9l0.2,27.8c2.8,0,5.5,0.9,7.6,2.7
	c2.5,2.1,4,5,4.3,8.2v58.7c-0.1,5-3,9.5-7.4,11.8h-43.9"/>
<path class="st0" d="M128.3,82.3c3.9-0.3,7.7,0.6,11.1,2.5c4.6,2.8,7.9,7.4,9.1,12.8l-0.2,26.1h-20"/>
<path class="st0" d="M128.3,143.5c5.8-0.5,11,3.4,12.3,9c0.3,1.6,0.3,3.2,0,4.7c-0.6,2.9-2.2,5.6-4.6,7.4l5.7,14.9h-13.4"/>
</svg>
