<?xml version="1.0" encoding="utf-8"?>
<!-- Generator: Adobe Illustrator 21.1.0, SVG Export Plug-In . SVG Version: 6.00 Build 0)  -->
<svg version="1.1" id="Слой_1" xmlns="http://www.w3.org/2000/svg" xmlns:xlink="http://www.w3.org/1999/xlink" x="0px" y="0px"
	 viewBox="0 0 283.5 283.5" style="enable-background:new 0 0 283.5 283.5;" xml:space="preserve">
<style type="text/css">
	.st0{fill:none;stroke:#F2F2F2;stroke-width:3;stroke-miterlimit:10;}
</style>
<path class="st0" d="M103.2,113.1c33.8,0.4,67.7,0.8,101.5,1.2c0.6,0.3,11.8,6.4,12.7,19.3c0.8,12.7-9,20.1-9.7,20.5
	c-41.5,0-83,0-124.5,0c0.9,3.2,3,8.9,7.9,14.5c4.6,5.4,9.7,8.2,12.7,9.7c51,0,101.9,0,152.9,0c15.3-3.4,25.8-17.3,24.8-32
	c-0.9-13.2-10.7-24.6-24.2-27.8c-0.2-2-1.9-18.8-16.9-28.4c-12.4-7.9-25.2-5.4-27.8-4.8c-5.5-16.4-21.3-27-38.1-26
	c-17.9,1.1-32.9,15.4-35.1,33.8c-3.4-0.5-8.5-0.8-14.3,0.9C111,98,104.5,110.4,103.2,113.1z"/>
<path class="st0" d="M89.3,124.5c32.2,0,64.5,0,96.7,0c4.9-0.3,9.1,3.2,9.7,7.9c0.5,4.3-2.3,8.5-6.6,9.7
	c-33.4,0.4-66.9,0.8-100.3,1.2c-0.8,0.8-3.1,3-6.6,3.6c-5.6,1-9.7-2.6-10.3-3.2c-3.9-3.5-4.1-8.2-4.2-9.5s-0.1-5,2.4-8.5
	c2.9-3.8,7-4.7,7.9-4.8C84.2,119.8,88.8,124.1,89.3,124.5z"/>
<circle class="st0" cx="80.1" cy="134.2" r="6"/>
<circle class="st0" cx="40.9" cy="177.3" r="6"/>
<circle class="st0" cx="40.9" cy="177.3" r="14.1"/>
<rect x="46.6" y="148.5" transform="matrix(0.6323 -0.7747 0.7747 0.6323 -97.3771 104.7779)" class="st0" width="30.1" height="13"/>
<path class="st0" d="M24.9,172.4c-5.8,1.1-11.6,2.1-17.5,3.2c-1.8,7.9-3.6,15.9-5.4,23.8c0,0.2,0.7,3.2,3.4,4.3
	c2.3,0.9,5.1,0.1,6.8-2c1.3-5.6,2.5-11.2,3.8-16.8c3-0.5,6-0.9,9.1-1.4C25.1,179.8,25,176.1,24.9,172.4z"/>
<path class="st0" d="M49.4,192.4c-0.3,5.9-0.6,11.8-0.9,17.7c-7.6,2.8-15.3,5.7-22.9,8.5c-0.2,0-3.3-0.3-4.7-2.8
	c-1.2-2.2-0.8-5.1,1.1-7c5.4-2,10.8-4,16.1-6c0.1-3.1,0.1-6.1,0.2-9.2C42.1,193.2,45.8,192.8,49.4,192.4z"/>
</svg>
