<?xml version="1.0" encoding="utf-8"?>
<!-- Generator: Adobe Illustrator 21.1.0, SVG Export Plug-In . SVG Version: 6.00 Build 0)  -->
<svg version="1.1" id="Слой_1" xmlns="http://www.w3.org/2000/svg" xmlns:xlink="http://www.w3.org/1999/xlink" x="0px" y="0px"
	 viewBox="0 0 283.6 193.2" style="enable-background:new 0 0 283.6 193.2;" xml:space="preserve">
<style type="text/css">
	.st0{fill:none;stroke:#F2F2F2;stroke-width:3;stroke-miterlimit:10;}
</style>
<title>NS - Icons - Chatbots</title>
<polyline class="st0" points="144.5,62 36.2,62 20.9,78.6 20.9,114.9 1.5,114.9 1.5,159.8 23.5,159.8 23.5,191.7 171.3,191.7 
	171.3,161.7 190.7,161.7 190.7,126.8 "/>
<circle class="st0" cx="69.9" cy="105.9" r="15.5"/>
<circle class="st0" cx="128.5" cy="105.9" r="15.5"/>
<path class="st0" d="M65.9,154.6h66.9c2.6,0,4.6,2.1,4.6,4.6v5.7c0,2.6-2.1,4.6-4.6,4.6H65.9c-2.6,0-4.6-2.1-4.6-4.6v-5.7
	C61.2,156.6,63.3,154.6,65.9,154.6z"/>
<circle class="st0" cx="99.3" cy="17" r="15.5"/>
<line class="st0" x1="99.3" y1="34.6" x2="99.3" y2="60"/>
<path class="st0" d="M282.1,90.4h-69.7l-48.3,41.9l16.8-41.9h-23.4V4.5h124.7V90.4z"/>
<circle class="st0" cx="248.8" cy="47.3" r="15.5"/>
<circle class="st0" cx="215.8" cy="48.2" r="11.8"/>
<circle class="st0" cx="187.2" cy="48.2" r="8.9"/>
</svg>
