<?xml version="1.0" encoding="utf-8"?>
<!-- Generator: Adobe Illustrator 21.0.0, SVG Export Plug-In . SVG Version: 6.00 Build 0)  -->
<svg version="1.1" id="Слой_1" xmlns="http://www.w3.org/2000/svg" xmlns:xlink="http://www.w3.org/1999/xlink" x="0px" y="0px"
	 viewBox="0 0 283.5 283.5" style="enable-background:new 0 0 283.5 283.5;" xml:space="preserve">
<style type="text/css">
	.st0{fill:none;stroke:#000000;stroke-width:3;stroke-miterlimit:10;}
</style>
<path class="st0" d="M240,101.6c1.7,52.7-41.8,85.7-46.1,88.8c-2.9,4.7-5.8,9.4-8.6,14c-29.6-0.1-59.3-0.2-88.9-0.3
	c-3.4-5.6-6.8-11.1-10.1-16.7c-4.4-3.1-47-34.7-46.1-85.9c0.8-50,42.8-99.9,99.9-99.9C197.5,1.7,238.4,52.3,240,101.6z"/>
<path class="st0" d="M182.1,228.2h-85c-1.3,0-2.4-1.1-2.4-2.4V222c0-1.3,1.1-2.4,2.4-2.4h85c1.3,0,2.4,1.1,2.4,2.4v3.9
	C184.5,227.2,183.4,228.2,182.1,228.2z"/>
<path class="st0" d="M182.5,252h-85c-1.3,0-2.4-1.1-2.4-2.4v-3.9c0-1.3,1.1-2.4,2.4-2.4h85c1.3,0,2.4,1.1,2.4,2.4v3.9
	C184.9,250.9,183.8,252,182.5,252z"/>
<path class="st0" d="M103.8,267.1c24.1,0,48.3,0,72.4,0c-11.7,5.4-23.5,10.8-35.2,16.2C128.6,277.9,116.2,272.5,103.8,267.1z"/>
<circle class="st0" cx="140.1" cy="101.2" r="15.2"/>
<path class="st0" d="M139.1,20.1c2.1-0.1,3.7,1.3,9.4,7.2c2.2,2.3,4.9,5.1,7.9,8.3c5.8-1.2,10.4-2.2,13.3-2.9
	c5.4-1.3,7.3-1.9,9.4-0.7c1.7,1,2.4,2.6,4.3,8.6c1,3.2,2.3,7.3,3.6,12.2c2.9,0.4,7,1.2,11.9,2.5c8.4,2.3,9.6,3.8,10.1,4.7
	c0.5,0.9,1.2,2.6-1.4,11.5c-1.3,4.4-2.6,8-3.6,10.4c2.4,1.7,5.8,4.3,9.4,7.9c4.7,4.7,7.1,7.3,6.8,10.4c-0.1,0.7-0.3,2.5-6.1,7.9
	c-3.4,3.2-6.5,5.6-8.6,7.2c0.1,2.4,0.3,5.9,1,10.1c1.3,8.4,3,11.1,1.2,13.6c-1,1.4-4,2.2-10.1,3.6c-1.7,0.4-5.3,1.3-10.4,2.5
	c-0.5,3.3-1.3,7.7-2.5,13c-1.7,7.3-2.6,8.6-3.9,9.4c-1.1,0.7-2.8,1.2-12.7-1.1c-3.8-0.9-7-1.8-9.4-2.5c-2.2,1.4-5.2,3.7-8.3,6.8
	c-5.8,5.9-6.8,9.7-9.7,9.7c-2.7,0-3.5-3.4-9.4-9c-2.8-2.7-5.4-4.6-7.2-5.8c-2.7-0.3-7-0.5-11.9,0.7c-6.9,1.7-9.9,4.7-12.2,3.2
	c-2.4-1.5-0.8-5.6-2.9-13c-1.1-3.8-2.7-6.7-4-8.6c-5.2-1.3-9.1-2.3-11.2-2.9c-7.5-1.9-11.2-2.9-12.2-4.7c-0.9-1.6-0.7-3.2,2.5-14
	c1.1-3.8,2.1-7,2.9-9.4c-2.4-1.7-5.8-4.3-9.4-7.9c-4.6-4.7-7.4-7.5-6.8-10.4c0.5-2.6,3.2-3.3,8.6-7.6c3.9-3,6.6-5.8,8.3-7.6
	c-1.1-2.3-2.8-5.9-4.3-10.4c-2.7-7.7-4-11.7-2.2-14.4c0.7-1,1.8-2,10.8-4c4.9-1.1,9.1-1.7,12.2-2.2c0.8-2.9,2-6.9,3.6-11.5
	c3-8.5,4.2-9.9,5.8-10.4c2.4-0.8,4.1,1,9,2.9c4.7,1.8,8.8,2.3,11.5,2.5c3.9-4.2,7.1-7.7,9.4-10.1C135.8,21.6,137.1,20.1,139.1,20.1z
	"/>
</svg>
