<?xml version="1.0" encoding="utf-8"?>
<!-- Generator: Adobe Illustrator 21.1.0, SVG Export Plug-In . SVG Version: 6.00 Build 0)  -->
<svg version="1.1" id="Слой_1" xmlns="http://www.w3.org/2000/svg" xmlns:xlink="http://www.w3.org/1999/xlink" x="0px" y="0px"
	 viewBox="0 0 227.5 278.8" style="enable-background:new 0 0 227.5 278.8;" xml:space="preserve">
<style type="text/css">
	.st0{fill:none;stroke:#F2F2F2;stroke-width:3;stroke-miterlimit:10;}
</style>
<title>NS - Icons - Neurosurgery</title>
<circle class="st0" cx="156" cy="135.8" r="11.2"/>
<path class="st0" d="M117.2,100.1l24.5,13.9c4.5-2.5,9.5-3.6,14.6-3.1c10.8,1.1,18.8,9.5,21.9,17.5c0.7,1.9,1.2,3.8,1.4,5.8
	l36.3,39.7c4.3,7.6,1.7,17.3-5.9,21.6c-5,2.8-11.1,2.8-16-0.2l-36.1-35.1c-1.7,0.1-3.3,0-5-0.2c-15.3-2.6-22.6-22.1-23.8-25.2
	l-12.3-5.8"/>
<path class="st0" d="M219.4,180.8l6.3,3.4l-3.6,9.6l-53.4,56.3l-25-22.4l39.7-41.6"/>
<path class="st0" d="M163.7,252.9c-6.3,4.9-14.5,6.3-22.1,3.9l-19.8,19.9l-2.8-2.5l20.3-19.9c-2.5-7.3-1.7-15.3,2.1-22L163.7,252.9z
	"/>
<path class="st0" d="M53.8,215.5c-0.9,7.9-5.6,14.8-12.7,18.6l0.4,28.1l-3.8,0.2l-0.1-28.4c-7-3.3-12.2-9.5-14.3-16.9L53.8,215.5z"
	/>
<path class="st0" d="M67.5,100.8l-23.1,13l-5.3,1.4c-3.9-2.3-8.4-3.6-13-3.6c-8.5,0-18.6,4.7-22.8,14.4c-5.1,11.9,2.2,22.8,3.1,24
	c1,1.5,6.8,9.8,17.6,10.8c11.8,1.2,19.5-7.3,20.4-8.3c3.3-3.9,5.4-8.6,6-13.7l16.8-9.9"/>
<circle class="st0" cx="25.7" cy="135.8" r="11.2"/>
<path class="st0" d="M45.8,153.2l7.4,56.7L23,211.7l-10.8-52.9"/>
<polygon class="st0" points="70.1,54.9 16.8,54.9 16.8,98.1 70.1,98.1 70.1,151.5 113.4,151.5 113.4,98.1 166.8,98.1 166.8,54.9 
	113.4,54.9 113.4,1.5 70.1,1.5 "/>
</svg>
