<?xml version="1.0" encoding="utf-8"?>
<!-- Generator: Adobe Illustrator 21.1.0, SVG Export Plug-In . SVG Version: 6.00 Build 0)  -->
<svg version="1.1" id="Слой_1" xmlns="http://www.w3.org/2000/svg" xmlns:xlink="http://www.w3.org/1999/xlink" x="0px" y="0px"
	 viewBox="0 0 268.2 281.9" style="enable-background:new 0 0 268.2 281.9;" xml:space="preserve">
<style type="text/css">
	.st0{fill:none;stroke:#fff;stroke-width:3;stroke-miterlimit:10;}
	.st1{fill:none;stroke:#fff;stroke-miterlimit:10;}
</style>
<title>NS - Icons - Thought Controlled Gaming</title>
<ellipse class="st0" cx="184.3" cy="228.7" rx="16.3" ry="11.9"/>
<ellipse class="st0" cx="197" cy="253.2" rx="13.9" ry="10.2"/>
<ellipse class="st0" cx="210.9" cy="273.1" rx="10.1" ry="7.4"/>
<path class="st0" d="M108.2,7.3c5-3.1,10.9-4.2,16.7-3.2c11.1,2.1,16.1,11.6,16.7,12.8c10.1-15.6,31-20,46.6-9.9
	c6,3.9,10.6,9.6,13.1,16.3c16.8-6.2,35.5-2.5,47.8,9.5c14.2,13.9,17.4,36.6,7.2,55c6.5,6.9,10.1,16,10.3,25.5
	c0.2,16.1-10.2,26.2-12,27.9c0.1,2.2,0.6,15.3-9.6,25.5c-5.4,5.3-12.4,8.7-19.9,9.6c3,5.2,3,11.6,0,16.7c-4.4,7.5-12.9,7.9-13.5,8
	c-12.1,11.7-29.9,15.1-45.4,8.8c-13.6,9.9-32.1,9.5-45.4-0.8c-3.2,4.2-8.3,6.3-13.5,5.6c-7.9-1.2-11-8.4-11.2-8.8
	c-1.6,1.2-11.6,8.9-24.7,6.4c-11.5-2.3-20.9-11.7-23.9-23.9C45.8,188,26.1,186.5,15,169c-10.5-16.5-4.7-33.7-4-35.8
	c-12.1-12.8-12.8-32.6-1.6-46.2c-7.6-16.9-4.4-36.5,8-49.4c16.8-17.5,41-12.2,42.2-11.9c0.9-2.5,5.1-13.3,16.7-19.1
	C91.8-1.3,106.8,6.5,108.2,7.3z"/>
<path class="st1" d="M142.5,85.3"/>
<circle class="st0" cx="167.9" cy="80.2" r="20.3"/>
<rect x="77.2" y="123.5" class="st0" width="41.4" height="41.4"/>
<line class="st0" x1="96.3" y1="58.2" x2="96.3" y2="102.1"/>
<line class="st0" x1="74" y1="80.2" x2="118.6" y2="80.2"/>
<line class="st0" x1="167.9" y1="123.5" x2="191.8" y2="165"/>
<line class="st0" x1="142.5" y1="165" x2="191.8" y2="165"/>
<line class="st0" x1="167.9" y1="123.5" x2="142.5" y2="165"/>
</svg>
