<svg id="Слой_1" data-name="Слой 1" xmlns="http://www.w3.org/2000/svg" viewBox="0 0 283.91 223.4"><defs><style>.cls-1{fill:none;stroke:#fff;stroke-miterlimit:10;stroke-width:3px;}</style></defs><title>NS - Icons - Robotic Personal Assistants</title><path class="cls-1" d="M141.95,1.53A543.52,543.52,0,0,0,86.11,3.7C49.78,7,40.42,11.61,36,14.05,31.36,16.62,9.77,28.54,3.31,51.7A54.75,54.75,0,0,0,2.22,74.58c2.86,22.27,5.67,50.06,8.67,87.12a167.85,167.85,0,0,0,86.89,59.65l44.12.54" transform="translate(0.01 0.01)"/><path class="cls-1" d="M8.22,130.42c2.67-1.66,6.78-4.72,8.67-9.86,1-2.6.76-6.31.27-13.62C16.16,91.69,16,90.52,15,88.42c-1.19-2.36-4-6.83-11.17-10.35Z" transform="translate(0.01 0.01)"/><path class="cls-1" d="M259.34,78.6c.2,5.45.42,14.16-4.36,23.35-6,11.65-16.4,16.95-21.79,19.61-8.87,4.39-15,4.81-54.11,6.17-26.55.93-32.09,1-37.13,1.09-13.47.16-24,.29-35.68-.18a387.35,387.35,0,0,1-55-6.23A39.07,39.07,0,0,1,25.46,78.6,40,40,0,0,1,41.81,41.3l21.42-7.6c9.82-1.78,24.07-4,41.4-5.45A358.08,358.08,0,0,1,142.4,26.8c7.69.13,16.38.81,33.77,2.18,28.87,2.27,34.69,3.37,37.77,4,17.25,3.52,25.87,5.28,33,12.35C258.54,56.7,259.14,73,259.34,78.6Z" transform="translate(0.01 0.01)"/><circle class="cls-1" cx="81.43" cy="81.36" r="14.98"/><line class="cls-1" x1="126.44" y1="185.86" x2="126.44" y2="198.93"/><line class="cls-1" x1="141.96" y1="181.13" x2="141.96" y2="204.74"/><path class="cls-1" d="M141.95,1.53A543.52,543.52,0,0,1,197.79,3.7c36.33,3.31,45.69,7.91,50.12,10.35,4.64,2.56,26.23,14.48,32.68,37.59a54.75,54.75,0,0,1,1.09,22.88c-2.86,22.32-5.66,50.11-8.72,87.16a167.85,167.85,0,0,1-86.89,59.65l-44.12.54" transform="translate(0.01 0.01)"/><path class="cls-1" d="M275.68,130.42c-2.72-1.65-6.79-4.75-8.71-9.86-1-2.6-.76-6.31-.27-13.62,1-15.25,1.12-16.42,2.18-18.52,1.19-2.36,4-6.83,11.17-10.35Z" transform="translate(0.01 0.01)"/><circle class="cls-1" cx="202.49" cy="81.36" r="14.98"/><line class="cls-1" x1="157.49" y1="185.86" x2="157.49" y2="198.93"/></svg>