<svg id="Слой_1" data-name="Слой 1" xmlns="http://www.w3.org/2000/svg" viewBox="0 0 276.86 281.22"><defs><style>.cls-1{fill:none;stroke:#fff;stroke-miterlimit:10;stroke-width:3px;}</style></defs><title>NS - Icons - Rial Time Emotion Analisator</title><g id="_Группа_" data-name="&lt;Группа&gt;"><path class="cls-1" d="M171.7,142.4c-12.3.9-20.5,2.5-20.5,4.4s7.3,3.3,18.4,4.2c6.4.5,14,.8,22.2.8,22.5,0,40.7-2.2,40.7-5a.6.6,0,0,0-.1-.4c-1.8-2.6-19.2-4.6-40.5-4.6C184.5,141.7,177.6,142,171.7,142.4Z" transform="translate(-3.55 -1.09)"/><path class="cls-1" d="M171.7,141.7v.7c-12.3.9-20.5,2.5-20.5,4.4s7.3,3.3,18.4,4.2A21,21,0,1,1,147,121.2c.9,15.1,2.4,25,4.1,25s3.2-9.8,4.1-24.8A20.72,20.72,0,0,1,171.7,141.7Z" transform="translate(-3.55 -1.09)"/><path class="cls-1" d="M150.6,28.9c-1.8,2.2-3.2,15.2-4,33.2-.3,7.6-.5,16.2-.5,25.2,0,12.6.3,24.2.9,33.8.9,15.1,2.4,25,4.1,25s3.2-9.8,4.1-24.8c.6-9.6.9-21.3.9-33.9,0-9.4-.2-18.4-.5-26.2-.8-19.3-2.5-32.5-4.5-32.5A.37.37,0,0,0,150.6,28.9Z" transform="translate(-3.55 -1.09)"/><path class="cls-1" d="M250.9,71c16.3,24.5,6.8,52.7,4.1,60.6a65.42,65.42,0,0,1-7,14.8c-5.2,0-10.5-.1-15.7-.1-1.8-2.6-19.2-4.6-40.5-4.6-7.3,0-14.2.2-20.1.7v-.7a21,21,0,0,0-16.5-20.5c.6-9.6.9-21.3.9-33.9,0-9.4-.2-18.4-.5-26.2,7.7-6.7,23.2-17.2,44.7-16.7C203.2,44.5,234.1,45.7,250.9,71Z" transform="translate(-3.55 -1.09)"/><path class="cls-1" d="M248,146.4c10.1,0,20.2.1,30.3.1a103.41,103.41,0,0,1,0,22.4c-4.4,41.1-33.7,82.4-76.4,101.3-56.5,25.1-109.1-1.4-120.3-7.5-53.5-28.9-68.4-81.5-71.4-93C7,157.2-7.3,94.6,32.2,48.3,60,15.6,100.3,7.6,111.5,5.4a152.75,152.75,0,0,1,39-2.5v26c-1.8,2.2-3.2,15.2-4,33.2-.3,7.6-.5,16.2-.5,25.2,0,12.6.3,24.2.9,33.8a21,21,0,1,0,22.6,29.8c6.4.5,14,.8,22.2.8,22.5,0,40.7-2.2,40.7-5a.6.6,0,0,0-.1-.4C237.6,146.3,242.8,146.4,248,146.4Z" transform="translate(-3.55 -1.09)"/><path class="cls-1" d="M248,146.4c-7.7,11.9-19.6,21.8-40.3,42.4-13.1,13.1-32.1,32.9-54,58.9" transform="translate(-3.55 -1.09)"/><path class="cls-1" d="M150.5,66l.1-.1" transform="translate(-3.55 -1.09)"/><path class="cls-1" d="M147.2,247.8c-21.9-26-40.8-45.8-53.9-58.9C65,160.6,53,152.4,46,131.6c-2.6-7.9-12.1-36.1,4.1-60.6,16.8-25.3,47.7-26.5,50.6-26.6,22.6-.5,38.7,11.2,45.9,17.7" transform="translate(-3.55 -1.09)"/></g></svg>