<svg id="Слой_1" data-name="Слой 1" xmlns="http://www.w3.org/2000/svg" viewBox="0 0 281.6 270.91"><defs><style>.cls-1{fill:none;stroke:#fff;stroke-miterlimit:10;stroke-width:3px;}</style></defs><title>NS - Icons - Neural Network</title><path class="cls-1" d="M50.56,73.46c-5.07-.26-17.72-.18-28.08,8.37-2.29,1.89-6.87,6.17-12,18.52-2.89,7-9.63,25.62-7.77,52a110.56,110.56,0,0,0,10.16,40c6.86,14.49,12.91,18.49,16.73,20.32a30.41,30.41,0,0,0,16.9,2.45c-3.83,17.22,3.54,34.65,17.76,43,18.07,10.56,37.23.55,38.24,0,2.27,11.75,11,19.69,19.71,19.67,8,0,13.36-6.63,13.75-7.12,5.34-6.73,4.51-15.46,4.18-19.12-2.08-23.4-.71-47-2.14-70.44-.36-5.95-.32-17.93-.25-41.89.31-92.48,6.29-123.11-6.57-128.47-6.93-2.89-18.53,1.9-23.68,9.47-3.82,5.62-3.63,12.1-3.21,15.63A33.47,33.47,0,0,0,50.56,73.46Z" transform="translate(-0.93 -8.36)"/><path class="cls-1" d="M93.58,66.88C93.09,68.3,89.3,78.7,78.64,82.42c-9.68,3.38-21-.15-28.08-9" transform="translate(-0.93 -8.36)"/><path class="cls-1" d="M64.3,140.38c-.26-2.14-1.91-13.89-12.23-21.17-9.05-6.38-18.85-5.13-23.62-4.52-13.42,1.71-22,9.81-25,12.92" transform="translate(-0.93 -8.36)"/><path class="cls-1" d="M72.07,235.39c3-8.23,6-20.75,2.74-34.44-2.42-10.25-6.43-13.22-7.52-14-5.58-3.81-12.38-2.48-18.52-1.2-6.39,1.34-18.17,4.9-30.7,15.88" transform="translate(-0.93 -8.36)"/><path class="cls-1" d="M107.32,83.68c-2.45,1-5.87,2.93-7.77,6.51-3.72,7,1.7,14.12-2,19.52-1.27,1.85-4,4-10.54,4.46,15,2.63,26.3,14.87,27.49,29.2C115.83,159.52,104.07,174.91,87,178c1.59-.38,13-2.87,23.3,4.78,10.59,7.86,11.29,20,11.35,21.51" transform="translate(-0.93 -8.36)"/><circle class="cls-1" cx="177.52" cy="49.71" r="18.13"/><circle class="cls-1" cx="181.7" cy="221.2" r="18.13"/><circle class="cls-1" cx="236.68" cy="176.58" r="18.13"/><circle class="cls-1" cx="188.87" cy="120.02" r="18.13"/><circle class="cls-1" cx="261.97" cy="110.26" r="18.13"/><circle class="cls-1" cx="188.87" cy="170.61" r="9.06"/><circle class="cls-1" cx="222.34" cy="84.55" r="9.06"/><line class="cls-1" x1="181.5" y1="67.83" x2="185.69" y2="96.71"/><line class="cls-1" x1="210.94" y1="115.1" x2="239.91" y2="111.59"/><line class="cls-1" x1="203.3" y1="135.12" x2="221.54" y2="157.9"/><line class="cls-1" x1="196.26" y1="206.46" x2="219.44" y2="188.74"/></svg>