<svg id="Слой_1" data-name="Слой 1" xmlns="http://www.w3.org/2000/svg" viewBox="0 0 286.07 148.92"><defs><style>.cls-1{fill:none;stroke:#fff;stroke-miterlimit:10;stroke-width:3px;}</style></defs><title>NS - Icons - Autonomous Systems</title><path class="cls-1" d="M119.87,159.48a31,31,0,0,0,44.19-1.08" transform="translate(1.5 -50.6)"/><path class="cls-1" d="M109.91,169.44c1.88,2,13.12,13.83,31.46,14.08,19,.26,30.84-12.11,32.66-14.08" transform="translate(1.5 -50.6)"/><path class="cls-1" d="M98.64,180.71c2.75,2.69,19.35,18.4,44.85,17.25,23.06-1,37.41-15.13,40.5-18.31" transform="translate(1.5 -50.6)"/><path class="cls-1" d="M141.75,72.32A23.47,23.47,0,0,0,121,83l-53.15.29L67.62,68,108,67.7A8.91,8.91,0,0,0,107.74,53l-32.35.29L65.28,63.37a16.16,16.16,0,0,0-3.18-6.93c-1.43-1.8-3.51-4.4-6.35-4.33-2.6.07-4.42,2.34-5.78,4a15.75,15.75,0,0,0-3.18,7.22l-9.68-10H5.35A7.1,7.1,0,0,0,5.2,67.12l40.15.43V82.28A8.86,8.86,0,0,0,39.86,85c-.39.43-2.83,3.18-2.17,6.64.61,3.21,3.65,5.8,7.51,6.21L92.86,112,62.1,139.91Q62,155.65,62,171.39A9.31,9.31,0,0,0,79.15,171l.29-22,29.75-16.61,1.59,10.54" transform="translate(1.5 -50.6)"/><rect class="cls-1" x="50.03" y="16.23" width="14.59" height="4.04"/><path class="cls-1" d="M141.32,72.32A23.47,23.47,0,0,1,162,83l53.15.29.26-15.3L175,67.7A8.91,8.91,0,0,1,175.33,53l32.35.29,10.11,10.11A16.16,16.16,0,0,1,221,56.43c1.43-1.8,3.51-4.4,6.35-4.33,2.6.07,4.42,2.34,5.78,4a15.75,15.75,0,0,1,3.18,7.22l9.68-10h31.77a7.1,7.1,0,0,1,.14,13.72l-40.15.43V82.28A8.86,8.86,0,0,1,243.2,85c.39.43,2.83,3.18,2.17,6.64-.61,3.21-3.65,5.8-7.51,6.21L190.2,112,221,139.91q.07,15.74.14,31.48a9.31,9.31,0,0,1-17.19-.43l-.29-22L173.88,132.4l-1.59,10.54" transform="translate(1.5 -50.6)"/><rect class="cls-1" x="221.02" y="16.23" width="14.59" height="4.04"/></svg>