<?xml version="1.0" encoding="utf-8"?>
<!-- Generator: Adobe Illustrator 21.1.0, SVG Export Plug-In . SVG Version: 6.00 Build 0)  -->
<svg version="1.1" id="Слой_1" xmlns="http://www.w3.org/2000/svg" xmlns:xlink="http://www.w3.org/1999/xlink" x="0px" y="0px"
	 viewBox="0 0 283.5 283.5" style="enable-background:new 0 0 283.5 283.5;" xml:space="preserve">
<style type="text/css">
	.st0{fill:none;stroke:#fff;stroke-width:3;stroke-miterlimit:10;}
</style>
<path class="st0" d="M190.6,134.1c0.2,20.5-20.9,40.6-38.1,49.9c-11.4,6.1-22,8.1-28.8,8.9c-11.8,9.2-23.6,18.4-35.4,27.6
	c-0.2-8.7-0.3-17.5-0.5-26.2c-8,0.3-19.8-0.3-32.8-4.9c-23.8-8.5-53.2-31.1-53-55.3c0.3-31.8,51.7-58.4,94.3-58.4
	C139.3,75.6,190.2,102.5,190.6,134.1z"/>
<path class="st0" d="M88.3,220.5"/>
<path class="st0" d="M93.9,134.1c-0.2,20.5,20.9,40.6,38.1,49.9c11.4,6.1,22,8.1,28.8,8.9c11.8,9.2,23.6,18.4,35.4,27.6
	c0.2-2.3,0.4-4.6,0.5-7c0.4-6.8,0.3-13.3-0.1-19.2c8,0.3,19.8-0.3,32.8-4.9c23.9-8.5,53.3-31.1,53.1-55.2
	c-0.3-31.8-51.7-58.4-94.3-58.4C145.2,75.6,94.3,102.5,93.9,134.1z"/>
<g id="XMLID_2_">
	<path class="st0" d="M147.7,138.9c0.5,1,0.8,2.1,0.8,3.3s-0.3,2.3-0.8,3.3c-1.2,2.4-3.7,4-6.6,4c-4.1,0-7.4-3.3-7.4-7.4
		c0-3,1.8-5.5,4.3-6.7c0.9-0.4,2-0.7,3.1-0.7s2.2,0.2,3.1,0.7C145.7,136.3,147,137.5,147.7,138.9z"/>
	<path class="st0" d="M144.8,120.9c0,5.4-0.2,10.4-0.6,14.7c-0.9-0.4-2-0.7-3.1-0.7s-2.2,0.2-3.1,0.7c-0.4-4.2-0.6-9.3-0.6-14.7
		c0-15,1.6-27.2,3.7-27.2C143.2,93.8,144.8,105.9,144.8,120.9z"/>
	<path class="st0" d="M156.9,138.6c11.9,0,21.5,1.7,21.5,3.7s-9.6,3.7-21.5,3.7c-3.3,0-6.4-0.1-9.2-0.4c0.5-1,0.8-2.1,0.8-3.3
		s-0.3-2.3-0.8-3.3C150.5,138.7,153.6,138.6,156.9,138.6z"/>
</g>
</svg>
