<?xml version="1.0" encoding="utf-8"?>
<!-- Generator: Adobe Illustrator 21.1.0, SVG Export Plug-In . SVG Version: 6.00 Build 0)  -->
<svg version="1.1" id="Слой_1" xmlns="http://www.w3.org/2000/svg" xmlns:xlink="http://www.w3.org/1999/xlink" x="0px" y="0px"
	 viewBox="0 0 283.6 258.4" style="enable-background:new 0 0 283.6 258.4;" xml:space="preserve">
<style type="text/css">
	.st0{fill:none;stroke:#fff;stroke-width:3;stroke-miterlimit:10;}
</style>
<title>NS - Icons - Neuromorphic Computer</title>
<path class="st0" d="M47.3,61.5c-4.8-0.2-16.9-0.2-26.7,7.9c-2.2,1.8-6.5,5.8-11.4,17.5C6.5,93.6,0,111.1,1.8,136
	c0.8,13.1,4.1,25.9,9.7,37.8c6.5,13.7,12.3,17.5,15.9,19.2c5,2.3,10.6,3.1,16.1,2.3c-3.6,16.3,3.4,32.7,16.9,40.6
	c17.2,10,35.4,0.5,36.4,0c2.2,11.1,10.4,18.6,18.8,18.6c7.6,0,12.7-6.3,13.1-6.7c5.1-6.4,4.3-14.6,4-18.1c-2-22.1-0.7-44.4-2-66.5
	c-0.4-5.6-0.3-16.9-0.2-39.6c0.3-87.3,6-116.2-6.3-121.3c-6.6-2.7-17.6,1.8-22.5,8.9c-3.6,5.3-3.4,11.4-3.1,14.8
	c-10.9-10.2-27.3-11.6-39.8-3.4C46,31.1,41.2,47.5,47.3,61.5z"/>
<path class="st0" d="M88.2,55.3C87.7,56.7,84.1,66.5,74,70c-9.2,3.2-20-0.1-26.7-8.5"/>
<path class="st0" d="M60.4,124.7c-0.3-2-1.8-13.1-11.6-20c-8.6-6-17.9-4.8-22.5-4.3c-9.1,1.3-17.5,5.6-23.8,12.2"/>
<path class="st0" d="M67.7,214.4c2.9-7.8,5.7-19.6,2.6-32.5c-2.3-9.7-6.1-12.5-7.2-13.2c-5.3-3.6-11.8-2.4-17.6-1.1
	c-6.1,1.3-17.3,4.6-29.2,15"/>
<path class="st0" d="M101.3,71.2c-3.1,1.1-5.7,3.3-7.4,6.1c-3.5,6.6,1.6,13.3-1.9,18.4c-1.2,1.8-3.8,3.8-10,4.2
	c14.3,2.5,25,14,26.2,27.6c1.3,15.2-9.9,29.8-26.2,32.7c1.5-0.4,12.4-2.7,22.2,4.5c10.1,7.4,10.7,18.8,10.8,20.3"/>
<path class="st0" d="M201.5,120.3c-0.5-3.6-2.1-12.5-8.6-15.4c-4.5-2-9.2-0.1-15.5,2.4c-10.1,3.9-20.5,7.2-31,9.9
	c-3.3-0.2-6.4-1.5-8.8-3.7c-4.6-4.2-3.9-10.8-4.9-10.8c-2.3,0,0.7,1.1,1,0"/>
<polygon class="st0" points="212.4,144.7 207,146.3 199.4,120.9 204.8,119.3 "/>
<path class="st0" d="M219.8,175.3c-3.8,0.7-7.8,0.2-11.4-1.4c-4.1-2.1-6.4-5.6-8.2-8.9c-7.4-14-12.7-39.4-13.5-43.4
	c-5.5,3.5-10.3,8-14,13.4c-10.9,15.9-8.4,33.6-7.7,38.5c0.8,5.4,1,1.8,8,24.6c3.9,12.8,5.4,18.9,10,28c3,6.1,4.5,9.1,7.4,12.6
	c12.3,15.3,31,18.1,37.1,18.3c3.2,0,6.4-0.2,9.6-0.7c2.2-0.4,4.2-0.9,6-1.5c2.8-0.8,4.9-1.6,6.4-2.2c1.9-0.7,3.7-1.4,5.7-2.4
	c2.9-1.5,5.6-3.2,8.1-5.1c4.8-3.7,18-17.1,18.8-36.7c0.2-4.4-0.5-7.8-1.7-14.5c-1.9-10.1-4.4-15.8-8.9-28.4
	c-8.1-22.4-5.7-19.6-8.3-24.4c-2.4-4.3-11.1-20.1-29.4-26.3c-6.2-2.1-12.8-2.9-19.3-2.4c1.8,3.7,12.9,27.3,15.4,42.8
	c0.6,3.8,0.8,7.9-1.2,12c-1.8,3.4-4.7,6.2-8.3,7.9l8.6,25.4l-1.7,0.8L219.8,175.3z"/>
</svg>
