<?xml version="1.0" encoding="utf-8"?>
<!-- Generator: Adobe Illustrator 21.1.0, SVG Export Plug-In . SVG Version: 6.00 Build 0)  -->
<svg version="1.1" id="Слой_1" xmlns="http://www.w3.org/2000/svg" xmlns:xlink="http://www.w3.org/1999/xlink" x="0px" y="0px"
	 viewBox="0 0 283.5 283.5" style="enable-background:new 0 0 283.5 283.5;" xml:space="preserve">
<style type="text/css">
	.st0{fill:none;stroke:#fff;stroke-width:3;stroke-miterlimit:10;}
</style>
<path class="st0" d="M1.7,124.6c-0.3,24.2,24.6,47.8,44.9,58.8c13.4,7.2,25.9,9.6,33.9,10.4c13.9,10.8,27.8,21.6,41.7,32.5
	c0.2-10.3,0.4-20.6,0.6-30.9c9.4,0.4,23.3-0.3,38.6-5.7c28.2-10,62.8-36.6,62.5-65.1c-0.3-37.5-60.8-68.8-111.1-68.8
	C62.2,55.7,2.2,87.4,1.7,124.6z"/>
<circle class="st0" cx="223.9" cy="125.3" r="25.7"/>
<circle class="st0" cx="54.3" cy="156.3" r="12.8"/>
<circle class="st0" cx="69.2" cy="86.8" r="12.8"/>
<path class="st0" d="M205.9,83.8c2-0.5,4-0.9,6.1-1.4c0.2-4.8,0.3-9.6,0.5-14.5c7-0.3,14-0.6,21-0.9c0.8,5.4,1.6,10.9,2.3,16.3
	c0.7,0.6,4.2,3.3,8.9,2.8c4.6-0.5,8.6-3.8,10.3-8.4c5.1,4.8,10.3,9.6,15.4,14.5c-1,0.7-5.7,4.3-6.5,10.7c-0.2,1.4-0.8,6.2,2.3,9.8
	c3.2,3.8,9.2,4.9,14.9,2.8c0.2,7,0.3,14,0.5,21c-5.5-2.4-11.4-1.6-14.9,1.9c-2.7,2.7-3.2,6.1-3.3,7c-0.5,5,2.5,10.1,7.5,13.1
	c-5.1,5.3-10.3,10.6-15.4,15.9c-0.3-0.6-3.4-7-10.3-7.9c-0.8-0.1-5.4-0.7-8.9,2.3c-3.5,3.2-4.4,9.1-1.9,14.5
	c-7.2,0.2-14.3,0.3-21.5,0.5c2.1-5.6,0.9-11.4-2.8-14.5c-2.4-2-5.1-2.3-6.5-2.3"/>
<path class="st0" d="M200.6,169.3c-4.8,2.2-9.6,4.3-14.4,6.5c-4.9-5.7-9.8-11.4-14.8-17.1c3.8-4.1,7.6-8.1,11.4-12.2
	c0-1-0.2-5.6-3.7-9.2c-3.4-3.6-8.7-4.8-13.5-3.4c0.4-7.3,0.8-14.7,1.2-22c1.2,0.4,7.2,2.1,12.8-1.2c1.2-0.7,5.4-3.2,6.2-8.1
	c0.8-5.1-2.3-10.9-7.8-14.3c4.5-3.8,9-7.5,13.5-11.3"/>
<path class="st0" d="M92.5,60c-5.1,3.2-6.8,9.7-4.2,14.5c2.8,5.3,10.3,7.4,15.9,3.7c0.3,5.4,0.6,10.9,0.9,16.3
	c-5.7-3.6-13.2-1.7-16.3,3.7c-2.9,5-1.4,11.8,3.6,15.4c-3.9,2.7-7.7,5.3-11.6,8c0.3-6.9-5.2-12.6-11.7-12.6c-6,0-11.2,4.9-11.7,11.2
	c-4.2-2.3-8.4-4.7-12.6-7c5.2-3.3,6.9-10,4.2-14.9c-3-5.5-10.6-7.5-16.3-3.7c-0.2-4.1-0.3-8.2-0.5-12.3"/>
<path class="st0" d="M92.5,60c-5.1,3.2-6.8,9.7-4.2,14.5c2.8,5.3,10.3,7.4,15.9,3.7c0.3,5.4,0.6,10.9,0.9,16.3
	c-5.7-3.6-13.2-1.7-16.3,3.7c-2.9,5-1.4,11.8,3.6,15.4c-3.9,2.7-7.7,5.3-11.6,8c0.3-6.9-5.2-12.6-11.7-12.6c-6,0-11.2,4.9-11.7,11.2
	c-4.2-2.3-8.4-4.7-12.6-7c5.2-3.3,6.9-10,4.2-14.9c-3-5.5-10.6-7.5-16.3-3.7c-0.2-4.1-0.3-8.2-0.5-12.3"/>
<path class="st0" d="M19.2,150.8c5.3,2.7,11.8,0.8,14.6-3.9c3.1-5.2,1-12.6-5-15.5c4.5-3.1,9-6.2,13.5-9.3
	c-0.1,6.7,5.3,12.1,11.6,12c5.8-0.1,10.9-4.9,11.3-11.1c4.3,1.9,8.5,3.9,12.8,5.8c-6.1,3.3-8.1,11-4.7,16.5c3.1,5.1,10,7.1,15.6,4.2
	c0.2,4.8,0.4,9.6,0.5,14.4c-5.5-2.7-12.1-0.7-14.9,4.1c-3.1,5.4-0.9,12.9,5.3,15.9"/>
</svg>
